<svg width="24" height="24" viewBox="0 0 24 24" fill="none" xmlns="http://www.w3.org/2000/svg">
<path d="M16.6 6.5C15 5.3 15 4 15 4H6V16.5C6 18.4 7.6 20 9.5 20H18V7C18 7 17 6.8 16.6 6.5ZM9.5 7.2C10.3 7.2 11 7.9 11 8.8C11 9.7 10.3 10.2 9.5 10.2C8.7 10.2 8 9.6 8 8.8C8 8 8.7 7.2 9.5 7.2ZM13 7H14L9 14H8L13 7ZM14 12.5C14 13.3 13.3 14 12.5 14C11.7 14 11 13.3 11 12.5C11 11.7 11.7 11 12.5 11C13.3 11 14 11.7 14 12.5ZM17 19H9.5C8.5 19 7.7 18.4 7.5 17.7C7.4 17.3 7.5 17 7.9 17H15V6.7C15 7.3 16 7.8 17 8V19Z" fill="#1C2E45" fill-opacity="0.6"/>
<path d="M13 12.5C13 12.776 12.776 13 12.5 13C12.224 13 12 12.776 12 12.5C12 12.224 12.224 12 12.5 12C12.776 12 13 12.224 13 12.5Z" fill="#1C2E45" fill-opacity="0.6"/>
<path d="M10 8.80005C10 9.07605 9.776 9.30005 9.5 9.30005C9.224 9.30005 9 9.07605 9 8.80005C9 8.52405 9.224 8.30005 9.5 8.30005C9.776 8.30005 10 8.52405 10 8.80005Z" fill="#1C2E45" fill-opacity="0.6"/>
</svg>
