<svg width="24" height="24" viewBox="0 0 24 24" fill="none" xmlns="http://www.w3.org/2000/svg">
<path d="M18.1 13.8C18.1 13.6 18.1 13.4 18.1 13.2C18.1 10.8 16.2 8.9 13.9 8.9C13.6 9 13.3 9 13 9V6H11V8.4C10.6 8.1 10.1 8 9.7 8C8.1 8 6.8 9.3 6.8 10.9C6.8 11.2 6.9 11.5 7 11.8C5.4 12 4 13.6 4 15.4C4 17.3 5.5 19 7.3 19H17.6C19 19 20 17.5 20 16.3C20 15.1 19.2 14 18.1 13.8ZM17.6 18H7.3C6.1 18 5 16.7 5 15.4C5 14.1 6.1 12.8 7.3 12.8C7.4 12.8 7.6 12.8 7.7 12.8L9.1 13L8.2 12C8 11.7 7.8 11.3 7.8 10.8C7.8 9.8 8.6 9 9.6 9C10.1 9 10.6 9.2 10.9 9.6V12H9L12 16L15 12H13V10.1C13.3 10 13.6 10 13.9 10C15.7 10 17.1 11.5 17.1 13.3C17.1 13.6 17.1 13.9 17 14.2L16.8 14.8L17.6 14.9C18.3 14.9 19 15.6 19 16.4C19 17.1 18.4 18 17.6 18Z" fill="#1C2E45" fill-opacity="0.6"/>
</svg>
